<svg width="211" height="85" viewBox="0 0 211 85" fill="none" xmlns="http://www.w3.org/2000/svg">
<path d="M199.578 40.7066C195.86 40.7066 192.972 39.9726 190.915 38.5046C188.897 37.0366 187.888 34.914 187.888 32.1367C187.888 29.5578 188.739 27.5939 190.44 26.2449C192.181 24.8563 194.574 24.0231 197.62 23.7454L206.047 22.9122V21.2459C206.047 19.2621 205.453 17.814 204.266 16.9014C203.08 15.9889 201.477 15.5326 199.46 15.5326C197.838 15.5326 196.275 15.7707 194.772 16.2468C193.308 16.7229 192.003 17.2585 190.855 17.8536C190.539 17.5759 190.242 17.2585 189.965 16.9014C189.728 16.5047 189.609 16.1079 189.609 15.7112C189.609 14.6796 190.183 13.8861 191.33 13.3307C192.398 12.7752 193.625 12.3586 195.009 12.0809C196.433 11.7635 197.937 11.6048 199.519 11.6048C202.961 11.6048 205.691 12.3785 207.708 13.9258C209.726 15.4731 210.735 17.9132 210.735 21.2459V35.3504C210.735 36.2233 210.557 36.8977 210.2 37.3738C209.884 37.8103 209.389 38.2269 208.717 38.6236C207.767 39.1394 206.502 39.6155 204.919 40.0519C203.337 40.4883 201.556 40.7066 199.578 40.7066ZM199.578 36.7787C201.24 36.7787 202.605 36.62 203.673 36.3026C204.781 35.9455 205.572 35.6083 206.047 35.2909V26.6615L198.688 27.4352C196.631 27.5939 195.108 28.0502 194.119 28.804C193.13 29.5578 192.635 30.6489 192.635 32.0772C192.635 33.5452 193.209 34.6958 194.356 35.5289C195.543 36.3621 197.284 36.7787 199.578 36.7787Z" fill="black"/>
<path d="M175.058 3.69C175.058 2.85682 175.355 2.1625 175.948 1.60705C176.542 1.01192 177.273 0.714355 178.144 0.714355C179.054 0.714355 179.786 1.01192 180.339 1.60705C180.893 2.1625 181.17 2.85682 181.17 3.69C181.17 4.52318 180.893 5.23733 180.339 5.83246C179.786 6.38791 179.054 6.66564 178.144 6.66564C177.273 6.66564 176.542 6.38791 175.948 5.83246C175.355 5.23733 175.058 4.52318 175.058 3.69ZM175.77 24.1624H180.517V39.7547C180.32 39.8341 180.023 39.9134 179.627 39.9928C179.232 40.1118 178.797 40.1713 178.322 40.1713C177.491 40.1713 176.858 40.0126 176.423 39.6952C175.988 39.3382 175.77 38.7827 175.77 38.0289V24.1624ZM180.517 26.4834H175.77V12.4979C175.968 12.4185 176.265 12.3392 176.66 12.2598C177.095 12.1408 177.55 12.0813 178.025 12.0813C178.856 12.0813 179.469 12.2598 179.865 12.6169C180.3 12.9343 180.517 13.4898 180.517 14.2833V26.4834Z" fill="black"/>
<path d="M157.562 17.4966V26.8996H152.815V17.8536C152.815 16.9411 152.973 16.227 153.29 15.7112C153.646 15.1557 154.219 14.6201 155.011 14.1043C156.039 13.4299 157.444 12.8546 159.224 12.3785C161.004 11.8627 162.982 11.6048 165.158 11.6048C168.323 11.6048 169.905 12.3983 169.905 13.9853C169.905 14.3821 169.846 14.759 169.727 15.1161C169.608 15.4335 169.45 15.7112 169.252 15.9492C168.857 15.8699 168.343 15.7905 167.71 15.7112C167.077 15.6318 166.444 15.5922 165.811 15.5922C163.991 15.5922 162.389 15.7905 161.004 16.1873C159.619 16.5444 158.472 16.9808 157.562 17.4966ZM152.815 24.162L157.562 24.8762V39.7543C157.364 39.8337 157.068 39.913 156.672 39.9924C156.277 40.1114 155.841 40.1709 155.367 40.1709C154.536 40.1709 153.903 40.0122 153.468 39.6948C153.033 39.3378 152.815 38.7823 152.815 38.0285V24.162Z" fill="black"/>
<path d="M123.764 29.1611L123.527 25.4118L141.448 22.9717C141.29 20.7896 140.538 19.0042 139.193 17.6156C137.848 16.1873 135.989 15.4731 133.615 15.4731C131.162 15.4731 129.125 16.3658 127.503 18.1512C125.92 19.8969 125.129 22.4163 125.129 25.7093V27.0186C125.406 30.1926 126.435 32.6128 128.215 34.2792C130.035 35.9059 132.507 36.7192 135.632 36.7192C137.294 36.7192 138.797 36.4415 140.142 35.886C141.487 35.3306 142.556 34.7354 143.347 34.1006C143.782 34.3784 144.118 34.7156 144.356 35.1123C144.633 35.4694 144.771 35.886 144.771 36.3621C144.771 37.1159 144.336 37.8301 143.466 38.5046C142.635 39.1394 141.507 39.6552 140.083 40.0519C138.698 40.4487 137.136 40.647 135.395 40.647C132.349 40.647 129.698 40.0916 127.443 38.9807C125.228 37.8698 123.507 36.2233 122.281 34.0411C121.094 31.8193 120.5 29.1214 120.5 25.9474C120.5 23.6859 120.817 21.6823 121.45 19.9366C122.122 18.1512 123.032 16.6435 124.18 15.4136C125.366 14.1837 126.771 13.2513 128.393 12.6165C130.015 11.942 131.775 11.6048 133.674 11.6048C136.087 11.6048 138.204 12.1206 140.024 13.1521C141.883 14.1837 143.327 15.6318 144.356 17.4966C145.424 19.3216 145.958 21.4244 145.958 23.8049C145.958 24.6778 145.76 25.3126 145.364 25.7093C144.969 26.0664 144.415 26.2846 143.703 26.364L123.764 29.1611Z" fill="black"/>
<path d="M104.114 17.7943V13.926H116.694C116.813 14.0847 116.932 14.3426 117.05 14.6997C117.169 15.0171 117.228 15.394 117.228 15.8304C117.228 16.4652 117.07 16.9611 116.754 17.3182C116.437 17.6356 115.982 17.7943 115.389 17.7943H104.114ZM104.945 10.1767V17.1397H100.257V9.93863C100.257 7.5978 100.672 5.71322 101.503 4.28492C102.373 2.81694 103.6 1.7457 105.182 1.07123C106.804 0.357074 108.723 0 110.938 0C113.193 0 114.954 0.297561 116.22 0.892689C117.525 1.48782 118.178 2.22181 118.178 3.09466C118.178 3.53109 118.079 3.92784 117.881 4.28492C117.723 4.64199 117.486 4.97923 117.169 5.29664C116.457 4.89989 115.567 4.58248 114.499 4.34443C113.431 4.06671 112.402 3.92784 111.413 3.92784C109 3.92784 107.318 4.42378 106.369 5.41566C105.42 6.40754 104.945 7.99455 104.945 10.1767ZM100.257 14.5211H105.004V39.7545C104.806 39.8339 104.51 39.9132 104.114 39.9926C103.718 40.1116 103.283 40.1711 102.809 40.1711C101.978 40.1711 101.345 40.0124 100.91 39.695C100.474 39.3379 100.257 38.7825 100.257 38.0287V14.5211Z" fill="#009136"/>
<path d="M86.1208 24.1624H90.8681V14.2833C90.8681 13.4898 90.6505 12.9343 90.2153 12.6169C89.8197 12.2598 89.2065 12.0813 88.3757 12.0813C87.901 12.0813 87.4461 12.1408 87.0109 12.2598C86.6153 12.3392 86.3186 12.4185 86.1208 12.4979V24.1624Z" fill="#009136"/>
<path d="M90.8681 39.7547V26.4834H86.1208V38.0289C86.1208 38.7827 86.3384 39.3382 86.7735 39.6952C87.2087 40.0126 87.8417 40.1713 88.6725 40.1713C89.1472 40.1713 89.5823 40.1118 89.978 39.9928C90.3736 39.9134 90.6703 39.8341 90.8681 39.7547Z" fill="#009136"/>
<path fill-rule="evenodd" clip-rule="evenodd" d="M86.2988 1.60705C85.7054 2.1625 85.4087 2.85682 85.4087 3.69C85.4087 4.52318 85.7054 5.23733 86.2988 5.83246C86.8922 6.38791 87.6241 6.66564 88.4944 6.66564C89.4043 6.66564 90.1362 6.38791 90.6901 5.83246C91.2439 5.23733 91.5208 4.52318 91.5208 3.69C91.5208 2.85682 91.2439 2.1625 90.6901 1.60705C90.1362 1.01192 89.4043 0.714355 88.4944 0.714355C87.6241 0.714355 86.8922 1.01192 86.2988 1.60705Z" fill="#A62727"/>
<path d="M90.8681 24.1624H86.1208V26.4834H90.8681V24.1624Z" fill="#009136"/>
<path d="M67.9133 17.4966V26.8996H63.166V17.8536C63.166 16.9411 63.3243 16.227 63.6407 15.7112C63.9968 15.1557 64.5704 14.6201 65.3616 14.1043C66.3902 13.4299 67.7946 12.8546 69.5749 12.3785C71.3551 11.8627 73.3331 11.6048 75.509 11.6048C78.6738 11.6048 80.2563 12.3983 80.2563 13.9853C80.2563 14.3821 80.1969 14.759 80.0782 15.1161C79.9596 15.4335 79.8013 15.7112 79.6035 15.9492C79.2079 15.8699 78.6936 15.7905 78.0606 15.7112C77.4277 15.6318 76.7947 15.5922 76.1617 15.5922C74.3419 15.5922 72.7397 15.7905 71.3551 16.1873C69.9705 16.5444 68.8232 16.9808 67.9133 17.4966ZM63.166 24.162L67.9133 24.8762V39.7543C67.7155 39.8337 67.4188 39.913 67.0232 39.9924C66.6276 40.1114 66.1924 40.1709 65.7177 40.1709C64.8869 40.1709 64.2539 40.0122 63.8188 39.6948C63.3836 39.3378 63.166 38.7823 63.166 38.0285V24.162Z" fill="black"/>
<path d="M34.1153 29.1611L33.878 25.4118L51.799 22.9717C51.6407 20.7896 50.8891 19.0042 49.544 17.6156C48.199 16.1873 46.3396 15.4731 43.966 15.4731C41.5132 15.4731 39.4758 16.3658 37.8538 18.1512C36.2714 19.8969 35.4802 22.4163 35.4802 25.7093V27.0186C35.7571 30.1926 36.7857 32.6128 38.5659 34.2792C40.3857 35.9059 42.8583 36.7192 45.9836 36.7192C47.6451 36.7192 49.1484 36.4415 50.4935 35.886C51.8385 35.3306 52.9067 34.7354 53.6979 34.1006C54.1331 34.3784 54.4693 34.7156 54.7067 35.1123C54.9836 35.4694 55.1221 35.886 55.1221 36.3621C55.1221 37.1159 54.6869 37.8301 53.8166 38.5046C52.9858 39.1394 51.8583 39.6552 50.4341 40.0519C49.0495 40.4487 47.4869 40.647 45.7462 40.647C42.7 40.647 40.0494 40.0916 37.7945 38.9807C35.5791 37.8698 33.8582 36.2233 32.6318 34.0411C31.445 31.8193 30.8516 29.1214 30.8516 25.9474C30.8516 23.6859 31.1681 21.6823 31.801 19.9366C32.4736 18.1512 33.3835 16.6435 34.5307 15.4136C35.7175 14.1837 37.1219 13.2513 38.7439 12.6165C40.3659 11.942 42.1264 11.6048 44.0253 11.6048C46.4385 11.6048 48.555 12.1206 50.3748 13.1521C52.2342 14.1837 53.6781 15.6318 54.7067 17.4966C55.7748 19.3216 56.3089 21.4244 56.3089 23.8049C56.3089 24.6778 56.1111 25.3126 55.7155 25.7093C55.3199 26.0664 54.766 26.2846 54.0539 26.364L34.1153 29.1611Z" fill="black"/>
<path d="M11.6902 40.647C9.98909 40.647 8.38688 40.3892 6.88357 39.8734C5.41982 39.3973 4.35168 38.8617 3.67915 38.2665V33.8626C4.47037 34.6164 5.45938 35.2909 6.64621 35.886C7.87259 36.4415 9.33634 36.7192 11.0374 36.7192C13.8067 36.7192 16.0221 35.886 17.6837 34.2197C19.3848 32.5136 20.2353 29.7959 20.2353 26.0664C20.2353 23.4478 19.8002 21.3847 18.9298 19.8771C18.099 18.3297 16.9716 17.2188 15.5474 16.5444C14.1628 15.8699 12.6594 15.5326 11.0374 15.5326C9.61326 15.5326 8.40666 15.7112 7.41764 16.0683C6.42862 16.4253 5.53851 16.8221 4.74729 17.2585V37.0168H0V17.3775C0 16.584 0.138463 15.9492 0.415388 15.4731C0.692313 14.997 1.26594 14.5011 2.13628 13.9853C3.20442 13.3902 4.47037 12.8546 5.93411 12.3785C7.43742 11.8627 9.13853 11.6048 11.0374 11.6048C13.6485 11.6048 16.0023 12.1206 18.099 13.1521C20.2353 14.144 21.9167 15.7112 23.143 17.8536C24.409 19.9564 25.042 22.694 25.042 26.0664C25.042 29.3198 24.4683 32.0375 23.3211 34.2197C22.2134 36.3621 20.6507 37.969 18.6331 39.0402C16.6155 40.1114 14.3012 40.647 11.6902 40.647ZM2.55167 51.0023C1.72089 51.0023 1.08792 50.8237 0.652753 50.4666C0.217584 50.1096 0 49.5541 0 48.8003V35.2909L4.74729 35.4099V50.5857C4.54949 50.665 4.25278 50.7444 3.85717 50.8237C3.46157 50.9428 3.0264 51.0023 2.55167 51.0023Z" fill="black"/>
<path d="M210.393 83.7821H198.721V59.3465L210.393 59.3134L210.493 63.6781H203.086V68.7041H209.964V72.9365H203.086V79.2851H210.493L210.393 83.7821Z" fill="#003087"/>
<path d="M196.216 71.2502C196.216 75.2402 194.871 78.3704 192.181 80.6409C189.646 82.7351 186.34 83.7822 182.262 83.7822H176.277V59.3466H181.964C185.932 59.3466 189.228 60.3165 191.851 62.2563C194.761 64.4166 196.216 67.4146 196.216 71.2502ZM191.851 71.5148C191.851 66.0038 188.103 63.2483 180.608 63.2483V79.8804H181.799C184.709 79.8804 187.056 79.2301 188.842 77.9295C190.848 76.4746 191.851 74.3364 191.851 71.5148Z" fill="#003087"/>
<path d="M168.715 52.8882L162.297 58.4482L159.882 57.0175L164.679 51.0023L168.715 52.8882ZM173.744 74.5104C173.744 77.3067 172.862 79.6044 171.097 81.4035C169.333 83.181 167.028 84.0697 164.183 84.0697C161.448 84.0697 159.176 83.181 157.368 81.4035C155.581 79.6261 154.688 77.3825 154.688 74.673V59.2936H159.022V73.9902C159.022 78.0654 160.742 80.1029 164.183 80.1029C167.668 80.1029 169.41 77.9787 169.41 73.7301V59.2936H173.744V74.5104Z" fill="#003087"/>
<path d="M153.684 83.782H149.021L147.401 80.6077H134.704L133.249 83.782H128.521L141.085 58.2883L153.684 83.782ZM145.549 76.7721L141.085 67.4145L136.291 76.7721H145.549Z" fill="#003087"/>
<path d="M127.749 76.4745C127.749 78.6128 126.9 80.4644 125.203 82.0295C123.527 83.5726 121.609 84.3442 119.449 84.3442C117.134 84.3442 115.195 83.6718 113.63 82.3271C112.571 81.3572 111.601 80.4314 110.72 79.5496L113.497 76.7721C115.173 78.8001 117.212 79.9795 119.614 80.3101C120.739 80.3101 121.653 79.9354 122.359 79.1859C123.064 78.4144 123.417 77.4665 123.417 76.3422C123.417 74.9976 122.458 73.8733 120.54 72.9695C118.755 72.1319 116.969 71.3052 115.184 70.4896C113.266 69.2331 112.307 67.4916 112.307 65.2652C112.307 63.3033 113.145 61.7051 114.82 60.4707C116.341 59.3685 118.104 58.8174 120.11 58.8174C123.108 58.8174 125.357 59.6881 126.856 61.4296L124.343 64.3394C122.954 63.2813 121.499 62.7522 119.978 62.7522C119.163 62.7522 118.424 62.9726 117.763 63.4135C117.013 63.8985 116.638 64.5378 116.638 65.3313C116.638 66.3013 117.223 67.0948 118.391 67.7121C118.523 67.7782 119.504 68.1419 121.334 68.8032C122.502 69.2221 123.593 69.7952 124.607 70.5227C125.842 71.4044 126.657 72.3082 127.054 73.2341C127.209 73.5647 127.374 74.1158 127.55 74.8873C127.682 75.4384 127.749 75.9675 127.749 76.4745Z" fill="#003087"/>
<path d="M109.038 71.6133C109.038 78.663 103.324 84.3779 96.2739 84.3779C89.2242 84.3779 83.5093 78.663 83.5093 71.6133C83.5093 64.5637 89.2242 58.8488 96.2739 58.8488C103.324 58.8488 109.038 64.5637 109.038 71.6133Z" fill="#003087"/>
<path d="M92.9914 62.2116H99.1108V68.331H92.9914V62.2116ZM92.9914 68.331H99.1108V74.4503H92.9914V68.331ZM92.9914 74.4503H99.1108V80.5697H92.9914V74.4503ZM86.8721 68.331H92.9914V74.4503H86.8721V68.331ZM99.1108 68.331H105.23V74.4503H99.1108V68.331Z" fill="white"/>
</svg>
