<svg width="398" height="860" viewBox="0 0 398 860" fill="none" xmlns="http://www.w3.org/2000/svg">
    <path d="M53 718.251L0.877907 709L0 860H397.5V799L53 718.251Z" fill="#007FB6"/>
    <path d="M0.877907 709L53 718.251L397.5 598L104.25 435.711L0 598L0.877907 709Z" fill="#FFCA00"/>
    <path d="M397.5 799V598L53 718.251L397.5 799Z" fill="#B1C901"/>
    <path d="M397.5 159L291 221.815L203.5 273.423L104.25 435.711L397.5 598V159Z" fill="#7C4990"/>
    <path d="M203.5 273.423L2.7093 394L0 598L104.25 435.711L203.5 273.423Z" fill="#048F35"/>
    <path d="M291 221.815L2.2084 159L2.7093 394L203.5 273.423L291 221.815Z" fill="#F27B01"/>
    <path d="M397.5 159L31 0H2.7093L2.2084 159L291 221.815L397.5 159Z" fill="#009DE0"/>
    <path d="M31 0L397.5 159V0H31Z" fill="#01642B"/>
</svg>
