<svg width="26" height="26" viewBox="0 0 26 26" fill="none" xmlns="http://www.w3.org/2000/svg">
<path d="M11.6663 4.84293V22.6548C11.6659 23.2075 11.4705 23.7423 11.1145 24.165C10.7584 24.5877 10.2647 24.8712 9.72015 24.9655C9.17563 25.0599 8.61527 24.959 8.13781 24.6807C7.66036 24.4024 7.29643 23.9645 7.11015 23.4442L4.2474 15.2437M4.2474 15.2437C3.11566 14.7624 2.18492 13.9063 1.6127 12.8177C1.04047 11.7291 0.861909 10.4762 1.10722 9.27111C1.35254 8.06598 2.00666 6.98262 2.9589 6.20436C3.91113 5.4261 5.103 5.00075 6.33279 5.00028H8.77553C14.2424 5.00028 18.9425 3.35483 20.9999 1V19.668C18.9425 17.3131 14.2437 15.6677 8.77553 15.6677H6.33279C5.61633 15.6683 4.90708 15.5232 4.2474 15.2437ZM20.9999 14.3343C22.0608 14.3343 23.0782 13.9128 23.8284 13.1626C24.5786 12.4124 25 11.3949 25 10.334C25 9.27304 24.5786 8.25556 23.8284 7.50536C23.0782 6.75516 22.0608 6.3337 20.9999 6.3337" stroke="#2C2C2C" stroke-width="2" stroke-linecap="round" stroke-linejoin="round"/>
</svg>
