<svg width="183" height="69" viewBox="0 0 183 69" fill="none" xmlns="http://www.w3.org/2000/svg">
<path d="M135.359 15.4944L133.643 15.9392C133.487 15.2967 132.644 14.0116 130.522 14.0116C128.401 14.0116 127.441 15.1978 127.246 15.9392C127.09 16.5323 126.747 18.4302 127.246 19.4978C127.662 20.2886 128.881 21.5736 130.522 21.5736C131.926 21.5736 133.019 20.8323 133.643 19.4978L135.359 20.2392C134.943 21.3265 133.393 23.4716 130.522 23.3529C126.934 23.2047 125.53 21.1288 125.218 19.4978C124.906 17.8668 124.887 12.2323 130.522 12.2323C133.799 12.2323 134.891 14.3082 135.359 15.4944Z" fill="#3E3E3E"/>
<path d="M158.292 15.4202L156.576 15.8651C156.368 15.1237 155.453 13.7002 153.456 13.9375C151.459 14.1747 150.544 15.3214 150.336 15.8651C150.076 16.557 149.712 18.2968 150.336 19.7202C150.96 21.1436 152.676 21.4995 153.456 21.4995C154.444 21.4007 156.451 20.8767 156.576 19.5719L158.292 20.165C157.98 21.1041 156.732 23.0119 154.236 23.1305V23.4271C154.652 23.6248 155.172 24.3167 155.172 24.9098C155.172 25.6314 154.548 26.3926 153.612 26.5408C153.3 26.5408 152.52 26.3926 151.896 25.7995L152.52 25.4288C152.676 25.5029 152.832 25.7253 153.3 25.7253C153.739 25.689 153.916 25.6272 154.08 25.4288C154.243 25.2304 154.236 24.8357 154.08 24.3909C153.768 24.0943 153.612 23.7978 152.208 24.0202L152.832 23.5753V23.1305H152.052C150.908 22.9328 148.526 21.7961 148.151 18.8306C147.683 15.1237 149.712 13.6409 149.868 13.4927C150.024 13.3444 151.116 12.3065 152.832 12.2323C154.288 12.1088 157.418 12.5734 158.292 15.4202Z" fill="#3E3E3E"/>
<path fill-rule="evenodd" clip-rule="evenodd" d="M139.571 8.97027H137.855L141.443 0.370328H142.847L146.435 8.97027H144.719L143.939 7.0427H140.351L139.571 8.97027ZM143.471 5.8565H140.819L141.911 2.74273H142.379L143.471 5.8565Z" fill="#3E3E3E"/>
<path fill-rule="evenodd" clip-rule="evenodd" d="M138.416 23.3529H136.295L140.731 12.3806H142.467L146.903 23.3529H144.782L143.817 20.8936H139.381L138.416 23.3529ZM143.239 19.3802H139.96L141.31 15.4074H141.888L143.239 19.3802Z" fill="#3E3E3E"/>
<path d="M148.151 8.97027V0.222054H150.336L152.676 6.30133H152.988L155.328 0.222054H157.512V8.97027H155.796V2.74273L153.612 8.08062H152.208L149.712 2.74273V8.97027H148.151Z" fill="#3E3E3E"/>
<path fill-rule="evenodd" clip-rule="evenodd" d="M162.379 38.7735H160.008L164.966 26.615H166.907L171.865 38.7735H169.494L168.416 36.0483H163.457L162.379 38.7735ZM167.769 34.3713H164.104L165.613 29.9691H166.26L167.769 34.3713Z" fill="#3E3E3E"/>
<path fill-rule="evenodd" clip-rule="evenodd" d="M161.506 23.3529H159.384L163.82 12.6771H165.556L169.993 23.3529H167.871L166.907 20.9601H162.47L161.506 23.3529ZM166.328 19.4876H163.049L164.399 15.6222H164.978L166.328 19.4876Z" fill="#3E3E3E"/>
<path fill-rule="evenodd" clip-rule="evenodd" d="M161.1 8.822H159.384L162.972 0.222054H164.376L167.965 8.822H166.249L165.468 6.89442H161.88L161.1 8.822ZM165 5.70823H162.348L163.44 2.59445H163.908L165 5.70823Z" fill="#3E3E3E"/>
<path fill-rule="evenodd" clip-rule="evenodd" d="M100.725 8.97027H102.441V5.18926H103.533L105.717 8.97027H107.589L105.249 5.18926C105.873 4.81857 106.809 4.05293 106.809 2.74273C106.809 1.55653 105.873 0.222054 104.625 0.222054H100.725V8.97027ZM102.441 1.55653V3.92893H104.313C104.937 3.92893 105.405 3.33583 105.405 2.74273C105.405 2.14963 104.937 1.55653 104.313 1.55653H102.441Z" fill="#3E3E3E"/>
<path fill-rule="evenodd" clip-rule="evenodd" d="M143.471 38.7735H145.811V33.5186H147.3L150.279 38.7735H152.832L149.641 33.5186C150.492 33.0034 151.768 31.9392 151.768 30.1183C151.768 28.4697 150.492 26.615 148.79 26.615H143.471V38.7735ZM145.811 28.4697V31.7669H148.364C149.215 31.7669 149.853 30.9426 149.853 30.1183C149.853 29.294 149.215 28.4697 148.364 28.4697H145.811Z" fill="#3E3E3E"/>
<path fill-rule="evenodd" clip-rule="evenodd" d="M130.054 8.97027H131.77V5.18926H132.863L135.047 8.97027H136.919L134.579 5.18926C135.203 4.81857 136.139 4.05293 136.139 2.74273C136.139 1.55653 135.203 0.222054 133.955 0.222054H130.054V8.97027ZM131.77 1.55653V3.92893H133.643C134.267 3.92893 134.735 3.33583 134.735 2.74273C134.735 2.14963 134.267 1.55653 133.643 1.55653H131.77Z" fill="#3E3E3E"/>
<path d="M56.1633 0.29655H89.2373V8.36546H79.7207V11.9516L69.8922 13.8942V8.36546H58.3475L56.1633 0.29655Z" fill="#FFCA00"/>
<path d="M79.7207 11.9516V38.848H69.8922V13.8942L79.7207 11.9516Z" fill="#F27B01"/>
<path d="M32.762 0.29655H53.8232L55.7687 8.59994H43.0586V11.862L37.2036 12.7516C37.3596 9.34132 34.6341 4.00342 32.762 2.81722V0.29655Z" fill="#B1C901"/>
<path d="M37.2036 12.7516L43.0586 11.862V15.7172H57.6408L59.6689 23.724H42.9759V24.9102L33.1473 24.3171C35.7683 21.9447 37.2036 16.3102 37.2036 12.7516Z" fill="#048F35"/>
<path d="M34.2394 22.8344L42.9759 24.9102V30.5447H61.541L63.7251 38.848H32.9913V24.3171C33.3553 24.07 33.9898 23.4275 34.2394 22.8344Z" fill="#01642B"/>
<path d="M20.9052 0H0V20.3136L9.98459 11.5654V8.30332H14.6649L23.2454 0.235131C22.495 0.102187 21.7144 0.0219691 20.9052 0Z" fill="#007FB6"/>
<path d="M19.3452 8.30332C26.8336 8.30332 27.1456 19.1274 19.3452 19.1274H18.4091L25.7415 26.0767C40.2545 21.0728 36.39 2.56399 23.2454 0.235131L14.6649 8.30332H19.3452Z" fill="#009DE0"/>
<path d="M0 38.848H9.98459V27.1343H20.9052C22.7017 26.9319 24.3109 26.5699 25.7415 26.0767L18.4091 19.1274H9.98459V11.5654L0 20.3136V38.848Z" fill="#7C4990"/>
<path d="M99.7886 23.0564H92.6121V12.5289H99.7886V14.1599H94.3282V17.1254H99.3205V18.7564H94.3282V21.4254H99.7886V23.0564Z" fill="#3E3E3E"/>
<path fill-rule="evenodd" clip-rule="evenodd" d="M102.909 23.0564H106.809C108.369 23.007 111.552 21.9295 111.801 18.6081V16.9771C111.697 15.5438 110.553 12.6771 106.809 12.6771H102.909V23.0564ZM106.809 21.2771H104.781V14.3082H106.809C109.056 14.1896 109.825 16.038 109.929 16.9771V18.6081C109.555 20.7433 107.693 21.2771 106.809 21.2771Z" fill="#3E3E3E"/>
<path d="M114.297 12.3806V20.0909C114.297 20.9805 115.389 23.2047 117.73 23.2047H119.446C120.33 23.2541 122.566 22.0185 122.722 20.0909V12.3806H120.85V20.0909C120.85 20.684 119.914 21.5736 118.978 21.5736H118.354C117.886 21.5736 116.544 21.2771 116.17 20.0909V12.3806H114.297Z" fill="#3E3E3E"/>
<path d="M104.781 26.7633V35.1894C104.781 36.213 106.035 38.7719 108.722 38.7719H110.692C111.707 38.8287 114.274 37.4071 114.453 35.1894V26.7633H112.304V35.1894C112.304 35.8718 111.229 36.8953 110.155 36.8953H109.438C108.901 36.8953 107.36 36.5541 106.93 35.1894V26.7633H104.781Z" fill="#3E3E3E"/>
<path fill-rule="evenodd" clip-rule="evenodd" d="M113.205 9.11855C114.453 9.11855 117.574 8.2289 117.574 4.52202C117.574 0.60577 114.453 0.0737776 113.205 0.073777C112.113 0.073777 108.837 0.71878 108.837 4.52202C108.837 8.37717 111.957 9.11855 113.205 9.11855ZM116.014 4.52202C116.138 7.13166 114.193 7.78407 113.205 7.78407C111.801 7.78408 110.553 6.59788 110.553 4.52202C110.553 2.37372 111.957 1.40825 113.205 1.40825C114.091 1.40825 115.889 1.91239 116.014 4.52202Z" fill="#3E3E3E"/>
<path fill-rule="evenodd" clip-rule="evenodd" d="M171.085 3.03928V8.97027H173.737C174.517 8.97027 176.202 8.34752 176.077 5.8565C175.952 3.36548 174.361 3.03928 173.737 3.03928H171.085ZM172.177 8.08062V4.0772H173.737C174.361 4.0772 174.985 4.81857 174.985 6.00477C174.985 7.19689 174.361 8.08062 173.737 8.08062H172.177Z" fill="#3E3E3E"/>
<path fill-rule="evenodd" clip-rule="evenodd" d="M176.545 23.3529C178.061 23.3529 181.849 22.2737 181.849 17.7768C181.849 13.026 178.061 12.3806 176.545 12.3806C175.219 12.3806 171.241 13.1631 171.241 17.7768C171.241 22.4536 175.03 23.3529 176.545 23.3529ZM179.955 17.7768C180.107 20.9426 177.745 21.7341 176.545 21.7341C174.84 21.7341 173.325 20.2951 173.325 17.7768C173.325 15.1707 175.03 13.9995 176.545 13.9995C177.62 13.9995 179.803 14.611 179.955 17.7768Z" fill="#3E3E3E"/>
<path d="M127.558 2.44618C126.986 1.5071 125.53 0.0737832 123.658 0.0737841C121.786 0.073785 119.446 0.66688 119.29 4.67031C119.226 6.30133 120.163 9.11855 123.658 9.11855C124.126 9.11855 125.312 8.88131 126.31 7.93235V8.97028H127.714V4.37375H124.126V5.55996H126.31C126.154 6.40018 125.418 7.65542 123.658 7.78408C121.63 7.93235 120.85 6.59788 120.85 4.67031C120.85 3.18755 121.006 1.51597 123.502 1.40826C124.334 1.45768 125.218 1.55653 126.31 3.03928L127.558 2.44618Z" fill="#3E3E3E"/>
<path fill-rule="evenodd" clip-rule="evenodd" d="M134.423 38.7735C136.116 38.7735 140.351 37.5776 140.351 32.5946C140.351 27.3301 136.116 26.615 134.423 26.615C132.941 26.615 128.494 27.482 128.494 32.5946C128.494 37.7769 132.729 38.7735 134.423 38.7735ZM138.234 32.5946C138.403 36.1026 135.764 36.9796 134.423 36.9796C132.517 36.9796 130.823 35.3851 130.823 32.5946C130.823 29.7067 132.729 28.4089 134.423 28.4089C135.624 28.4089 138.064 29.0866 138.234 32.5946Z" fill="#3E3E3E"/>
<path fill-rule="evenodd" clip-rule="evenodd" d="M92.7681 0.222054V8.97027H94.3282V5.2634H96.6684C97.6044 5.2634 98.8525 4.22548 98.8525 2.891C98.8525 1.55653 97.6044 0.222054 96.6684 0.222054H92.7681ZM94.3282 3.92893V1.7048H96.3563C96.6684 1.80365 97.2924 2.17928 97.2924 2.891C97.2924 3.60272 96.6684 3.8795 96.3563 3.92893H94.3282Z" fill="#3E3E3E"/>
<path d="M177.481 8.97027H181.537V7.93235H178.417V6.4496H181.225V5.55995H178.417V3.92893H181.537V3.03928H177.481V8.97027Z" fill="#3E3E3E"/>
<path d="M162.66 11.9358H163.284C163.44 11.4909 163.659 11.3427 163.908 11.3427C164.376 11.3427 164.474 11.4358 164.844 11.7875C165 11.9358 165.468 12.2323 165.78 12.084C166.092 11.9358 166.405 11.7875 166.717 11.3427V10.7496H166.249C165.936 10.7496 165.78 11.1944 165.468 11.1944C165.189 11.1944 164.532 10.6013 164.064 10.6013C163.596 10.6013 163.284 10.6013 162.972 10.8978C162.791 11.0915 162.726 11.1876 162.66 11.3427C162.609 11.6117 162.606 11.7435 162.66 11.9358Z" fill="#3E3E3E"/>
<path d="M92.4561 26.615V28.3943H96.5123V38.6253H98.6965V28.3943H102.597V26.615H92.4561Z" fill="#3E3E3E"/>
<path d="M116.638 26.615V28.3943H120.694V38.6253H122.878V28.3943H126.778V26.615H116.638Z" fill="#3E3E3E"/>
<path d="M155.328 26.615H157.668V38.6253H155.328V26.615Z" fill="#3E3E3E"/>
<path d="M174.049 26.7633H176.389V36.6977H182.005V38.6253H174.049V26.7633Z" fill="#3E3E3E"/>
<path d="M8.80063 57.1078C8.44025 56.697 8.05103 56.4026 7.63298 56.2246C7.21493 56.0329 6.75364 55.9371 6.2491 55.9371C5.68689 55.9371 5.18956 56.0329 4.7571 56.2246C4.32463 56.4026 3.96425 56.6559 3.67594 56.9846C3.40204 57.3132 3.19302 57.6966 3.04886 58.1348C2.90471 58.5592 2.83263 59.0179 2.83263 59.5109C2.83263 60.0038 2.91192 60.4694 3.07049 60.9076C3.24347 61.332 3.47412 61.7086 3.76243 62.0372C4.06515 62.3658 4.42554 62.626 4.84359 62.8177C5.26164 62.9957 5.73014 63.0847 6.2491 63.0847C7.35909 63.0847 8.21681 62.6876 8.82226 61.8934L10.0764 63.0231C9.58627 63.5571 9.00966 63.9474 8.34655 64.1938C7.68343 64.4403 6.98428 64.5635 6.2491 64.5635C5.47066 64.5635 4.7571 64.4403 4.1084 64.1938C3.4597 63.9474 2.90471 63.5982 2.44341 63.1463C1.99654 62.6945 1.64336 62.1604 1.38388 61.5443C1.13882 60.9281 1.01628 60.2503 1.01628 59.5109C1.01628 58.7852 1.13882 58.1142 1.38388 57.498C1.64336 56.8819 2.00374 56.3478 2.46504 55.896C2.92633 55.4441 3.47412 55.095 4.1084 54.8485C4.7571 54.5883 5.47066 54.4582 6.2491 54.4582C6.9987 54.4582 7.70506 54.5815 8.36817 54.8279C9.0457 55.0744 9.63673 55.4578 10.1413 55.9781L8.80063 57.1078Z" fill="#3E3E3E"/>
<path d="M14.1291 59.5109C14.1291 60.0175 14.2083 60.4899 14.3669 60.9281C14.5399 61.3526 14.785 61.7291 15.1021 62.0577C15.4192 62.3727 15.794 62.626 16.2265 62.8177C16.6734 62.9957 17.1707 63.0847 17.7185 63.0847C18.2663 63.0847 18.7564 62.9957 19.1889 62.8177C19.6358 62.626 20.0178 62.3727 20.3349 62.0577C20.6521 61.7291 20.8899 61.3526 21.0485 60.9281C21.2215 60.4899 21.308 60.0175 21.308 59.5109C21.308 59.0042 21.2215 58.5387 21.0485 58.1142C20.8899 57.676 20.6521 57.2995 20.3349 56.9846C20.0178 56.6559 19.6358 56.4026 19.1889 56.2246C18.7564 56.0329 18.2663 55.9371 17.7185 55.9371C17.1707 55.9371 16.6734 56.0329 16.2265 56.2246C15.794 56.4026 15.4192 56.6559 15.1021 56.9846C14.785 57.2995 14.5399 57.676 14.3669 58.1142C14.2083 58.5387 14.1291 59.0042 14.1291 59.5109ZM12.3127 59.5109C12.3127 58.7578 12.4497 58.0731 12.7236 57.457C12.9974 56.8408 13.3722 56.3136 13.848 55.8754C14.3237 55.4236 14.8931 55.0744 15.5562 54.8279C16.2193 54.5815 16.9401 54.4582 17.7185 54.4582C18.4969 54.4582 19.2177 54.5815 19.8808 54.8279C20.5439 55.0744 21.1133 55.4236 21.5891 55.8754C22.0648 56.3136 22.4396 56.8408 22.7135 57.457C22.9874 58.0731 23.1243 58.7578 23.1243 59.5109C23.1243 60.264 22.9874 60.9486 22.7135 61.5648C22.4396 62.181 22.0648 62.715 21.5891 63.1669C21.1133 63.605 20.5439 63.9474 19.8808 64.1938C19.2177 64.4403 18.4969 64.5635 17.7185 64.5635C16.9401 64.5635 16.2193 64.4403 15.5562 64.1938C14.8931 63.9474 14.3237 63.605 13.848 63.1669C13.3722 62.715 12.9974 62.181 12.7236 61.5648C12.4497 60.9486 12.3127 60.264 12.3127 59.5109Z" fill="#3E3E3E"/>
<path d="M26.6002 56.9846C26.6002 56.5464 26.5858 56.1356 26.557 55.7522C26.5282 55.3688 26.5137 55.0196 26.5137 54.7047H28.1139C28.1139 54.9649 28.1211 55.225 28.1355 55.4852C28.1499 55.7454 28.1571 56.0124 28.1571 56.2862H28.2003C28.3157 56.0534 28.4742 55.8275 28.6761 55.6084C28.8923 55.3893 29.1446 55.1976 29.4329 55.0333C29.7212 54.8553 30.0455 54.7184 30.4059 54.6226C30.7663 54.513 31.1555 54.4582 31.5736 54.4582C32.2367 54.4582 32.8061 54.5541 33.2818 54.7458C33.7719 54.9375 34.1756 55.2045 34.4927 55.5468C34.8098 55.8891 35.0405 56.3068 35.1846 56.7997C35.3432 57.279 35.4225 57.8061 35.4225 58.3812V64.3171H33.7359V58.5455C33.7359 57.7377 33.5485 57.1009 33.1737 56.6354C32.7989 56.1698 32.2151 55.9371 31.4222 55.9371C30.8744 55.9371 30.3987 56.0261 29.9951 56.2041C29.6059 56.3821 29.2815 56.6354 29.022 56.964C28.777 57.2927 28.5896 57.6829 28.4598 58.1348C28.3445 58.5866 28.2868 59.0864 28.2868 59.6341V64.3171H26.6002V56.9846Z" fill="#3E3E3E"/>
<path d="M47.0701 58.6482C47.0413 57.8267 46.7602 57.1694 46.2268 56.6765C45.6935 56.1835 44.9583 55.9371 44.0213 55.9371C43.0843 55.9371 42.3274 56.1835 41.7508 56.6765C41.1742 57.1694 40.8282 57.8267 40.7129 58.6482H47.0701ZM48.5189 62.5712C47.9134 63.3106 47.2503 63.831 46.5295 64.1322C45.8088 64.4198 44.9727 64.5635 44.0213 64.5635C43.2284 64.5635 42.5148 64.4335 41.8806 64.1733C41.2463 63.8994 40.7057 63.5366 40.2588 63.0847C39.8264 62.6328 39.4876 62.0988 39.2425 61.4826C39.0119 60.8665 38.8966 60.2092 38.8966 59.5109C38.8966 58.7715 39.0263 58.0937 39.2858 57.4775C39.5453 56.8476 39.9056 56.3136 40.3669 55.8754C40.8282 55.4236 41.376 55.0744 42.0103 54.8279C42.6446 54.5815 43.3365 54.4582 44.0861 54.4582C44.7925 54.4582 45.4412 54.5746 46.0322 54.8074C46.6232 55.0265 47.1278 55.3551 47.5458 55.7933C47.9783 56.2178 48.3099 56.7449 48.5405 57.3748C48.7712 57.991 48.8865 58.6962 48.8865 59.4903V60.0038H40.7129C40.7417 60.4146 40.8426 60.8117 41.0156 61.1951C41.203 61.5648 41.4409 61.8934 41.7292 62.181C42.0175 62.4548 42.3563 62.6739 42.7455 62.8382C43.1347 63.0026 43.56 63.0847 44.0213 63.0847C44.7564 63.0847 45.3763 62.9615 45.8809 62.715C46.3854 62.4685 46.8395 62.1057 47.2431 61.6264L48.5189 62.5712Z" fill="#3E3E3E"/>
<path d="M54.9769 59.1412L51.3443 54.7047H53.5498L56.2311 58.1553L58.761 54.7047H60.8152L57.3339 59.1412L61.5072 64.3171H59.28L56.0797 60.1681L52.9227 64.3171H50.8253L54.9769 59.1412Z" fill="#3E3E3E"/>
<path d="M68.7942 59.6957C67.713 59.6957 66.8553 59.8395 66.221 60.1271C65.5867 60.4146 65.2696 60.887 65.2696 61.5443C65.2696 62.1467 65.4786 62.5781 65.8967 62.8382C66.3291 63.0847 66.8625 63.2079 67.4968 63.2079C67.9869 63.2079 68.4122 63.1326 68.7725 62.982C69.1473 62.8177 69.4573 62.6055 69.7023 62.3453C69.9474 62.0851 70.1348 61.7839 70.2645 61.4416C70.3943 61.0856 70.4664 60.709 70.4808 60.3119V59.6957H68.7942ZM63.9073 55.9371C64.4263 55.4304 65.0389 55.0607 65.7453 54.8279C66.4661 54.5815 67.1941 54.4582 67.9292 54.4582C69.4284 54.4582 70.5096 54.7937 71.1727 55.4647C71.8358 56.1356 72.1674 57.1557 72.1674 58.525V62.6534C72.1674 62.9272 72.1818 63.2148 72.2106 63.516C72.2395 63.8036 72.2755 64.0706 72.3188 64.3171H70.697C70.6393 64.098 70.6033 63.8583 70.5889 63.5982C70.5889 63.3243 70.5889 63.0847 70.5889 62.8793H70.5456C70.2141 63.3723 69.7672 63.7762 69.205 64.0911C68.6572 64.4061 67.9941 64.5635 67.2157 64.5635C66.6967 64.5635 66.2066 64.5019 65.7453 64.3787C65.2984 64.2554 64.902 64.0774 64.556 63.8447C64.2245 63.5982 63.9578 63.2969 63.756 62.9409C63.5541 62.5849 63.4532 62.1741 63.4532 61.7086C63.4532 60.9144 63.6695 60.2914 64.1019 59.8395C64.5344 59.3876 65.0678 59.0522 65.702 58.8331C66.3507 58.614 67.0427 58.4771 67.7779 58.4223C68.5275 58.3675 69.2122 58.3402 69.8321 58.3402H70.4808V58.0526C70.4808 57.3543 70.2573 56.8271 69.8105 56.4711C69.378 56.1151 68.7653 55.9371 67.9725 55.9371C67.4247 55.9371 66.8841 56.0261 66.3507 56.2041C65.8318 56.3684 65.3705 56.6285 64.9669 56.9846L63.9073 55.9371ZM64.4479 52.1578C64.4912 51.8977 64.5632 51.6375 64.6641 51.3774C64.7795 51.1172 64.9236 50.8913 65.0966 50.6996C65.284 50.4942 65.5002 50.3299 65.7453 50.2066C66.0048 50.0834 66.2931 50.0218 66.6102 50.0218C66.9418 50.0218 67.2517 50.0765 67.54 50.1861C67.8427 50.2819 68.1383 50.3846 68.4266 50.4942C68.6428 50.5763 68.8302 50.6585 68.9888 50.7406C69.1618 50.8091 69.3636 50.8433 69.5942 50.8433C69.8825 50.8433 70.106 50.7543 70.2645 50.5763C70.4375 50.3983 70.5601 50.1861 70.6321 49.9396H71.6701C71.6268 50.1998 71.5547 50.4599 71.4538 50.7201C71.3673 50.9666 71.2376 51.1925 71.0646 51.3979C70.906 51.6033 70.7114 51.7676 70.4808 51.8908C70.2501 52.0141 69.9762 52.0757 69.6591 52.0757C69.3564 52.0757 69.0536 52.0346 68.7509 51.9525C68.4626 51.8566 68.1815 51.7539 67.9076 51.6444C67.6914 51.5622 67.4607 51.4801 67.2157 51.3979C66.9706 51.302 66.7256 51.2541 66.4805 51.2541C66.2066 51.2541 65.9904 51.35 65.8318 51.5417C65.6732 51.7197 65.5579 51.9251 65.4858 52.1578H64.4479Z" fill="#3E3E3E"/>
<path d="M77.3473 59.5109C77.3473 60.0175 77.4266 60.4899 77.5852 60.9281C77.7582 61.3526 78.0032 61.7291 78.3204 62.0577C78.6375 62.3727 79.0123 62.626 79.4448 62.8177C79.8917 62.9957 80.389 63.0847 80.9368 63.0847C81.4846 63.0847 81.9747 62.9957 82.4071 62.8177C82.854 62.626 83.236 62.3727 83.5532 62.0577C83.8703 61.7291 84.1082 61.3526 84.2667 60.9281C84.4397 60.4899 84.5262 60.0175 84.5262 59.5109C84.5262 59.0042 84.4397 58.5387 84.2667 58.1142C84.1082 57.676 83.8703 57.2995 83.5532 56.9846C83.236 56.6559 82.854 56.4026 82.4071 56.2246C81.9747 56.0329 81.4846 55.9371 80.9368 55.9371C80.389 55.9371 79.8917 56.0329 79.4448 56.2246C79.0123 56.4026 78.6375 56.6559 78.3204 56.9846C78.0032 57.2995 77.7582 57.676 77.5852 58.1142C77.4266 58.5387 77.3473 59.0042 77.3473 59.5109ZM75.531 59.5109C75.531 58.7578 75.6679 58.0731 75.9418 57.457C76.2157 56.8408 76.5905 56.3136 77.0662 55.8754C77.5419 55.4236 78.1113 55.0744 78.7745 54.8279C79.4376 54.5815 80.1583 54.4582 80.9368 54.4582C81.7152 54.4582 82.436 54.5815 83.0991 54.8279C83.7622 55.0744 84.3316 55.4236 84.8073 55.8754C85.283 56.3136 85.6578 56.8408 85.9317 57.457C86.2056 58.0731 86.3426 58.7578 86.3426 59.5109C86.3426 60.264 86.2056 60.9486 85.9317 61.5648C85.6578 62.181 85.283 62.715 84.8073 63.1669C84.3316 63.605 83.7622 63.9474 83.0991 64.1938C82.436 64.4403 81.7152 64.5635 80.9368 64.5635C80.1583 64.5635 79.4376 64.4403 78.7745 64.1938C78.1113 63.9474 77.5419 63.605 77.0662 63.1669C76.5905 62.715 76.2157 62.181 75.9418 61.5648C75.6679 60.9486 75.531 60.264 75.531 59.5109Z" fill="#3E3E3E"/>
<path d="M98.3017 59.5109C98.3017 60.0175 98.381 60.4899 98.5396 60.9281C98.7126 61.3526 98.9576 61.7291 99.2748 62.0577C99.5919 62.3727 99.9667 62.626 100.399 62.8177C100.846 62.9957 101.343 63.0847 101.891 63.0847C102.439 63.0847 102.929 62.9957 103.362 62.8177C103.808 62.626 104.19 62.3727 104.508 62.0577C104.825 61.7291 105.063 61.3526 105.221 60.9281C105.394 60.4899 105.481 60.0175 105.481 59.5109C105.481 59.0042 105.394 58.5387 105.221 58.1142C105.063 57.676 104.825 57.2995 104.508 56.9846C104.19 56.6559 103.808 56.4026 103.362 56.2246C102.929 56.0329 102.439 55.9371 101.891 55.9371C101.343 55.9371 100.846 56.0329 100.399 56.2246C99.9667 56.4026 99.5919 56.6559 99.2748 56.9846C98.9576 57.2995 98.7126 57.676 98.5396 58.1142C98.381 58.5387 98.3017 59.0042 98.3017 59.5109ZM96.6151 54.7047H98.3017V56.1014H98.345C98.8063 55.581 99.3396 55.1771 99.9451 54.8896C100.565 54.602 101.242 54.4582 101.978 54.4582C102.771 54.4582 103.491 54.5883 104.14 54.8485C104.803 55.095 105.365 55.4441 105.827 55.896C106.288 56.3478 106.648 56.8819 106.908 57.498C107.167 58.1142 107.297 58.7852 107.297 59.5109C107.297 60.2366 107.167 60.9076 106.908 61.5237C106.648 62.1399 106.288 62.6739 105.827 63.1258C105.38 63.5776 104.846 63.9337 104.226 64.1938C103.607 64.4403 102.943 64.5635 102.237 64.5635C101.329 64.5635 100.529 64.3787 99.837 64.009C99.1594 63.6256 98.6621 63.16 98.345 62.6123H98.3017V69H96.6151V54.7047Z" fill="#3E3E3E"/>
<path d="M118.375 58.6482C118.346 57.8267 118.065 57.1694 117.532 56.6765C116.998 56.1835 116.263 55.9371 115.326 55.9371C114.389 55.9371 113.632 56.1835 113.056 56.6765C112.479 57.1694 112.133 57.8267 112.018 58.6482H118.375ZM119.824 62.5712C119.218 63.3106 118.555 63.831 117.835 64.1322C117.114 64.4198 116.278 64.5635 115.326 64.5635C114.533 64.5635 113.82 64.4335 113.186 64.1733C112.551 63.8994 112.011 63.5366 111.564 63.0847C111.131 62.6328 110.793 62.0988 110.548 61.4826C110.317 60.8665 110.202 60.2092 110.202 59.5109C110.202 58.7715 110.331 58.0937 110.591 57.4775C110.85 56.8476 111.211 56.3136 111.672 55.8754C112.133 55.4236 112.681 55.0744 113.315 54.8279C113.95 54.5815 114.642 54.4582 115.391 54.4582C116.097 54.4582 116.746 54.5746 117.337 54.8074C117.928 55.0265 118.433 55.3551 118.851 55.7933C119.283 56.2178 119.615 56.7449 119.846 57.3748C120.076 57.991 120.191 58.6962 120.191 59.4903V60.0038H112.018C112.047 60.4146 112.148 60.8117 112.321 61.1951C112.508 61.5648 112.746 61.8934 113.034 62.181C113.323 62.4548 113.661 62.6739 114.05 62.8382C114.44 63.0026 114.865 63.0847 115.326 63.0847C116.061 63.0847 116.681 62.9615 117.186 62.715C117.69 62.4685 118.144 62.1057 118.548 61.6264L119.824 62.5712Z" fill="#3E3E3E"/>
<path d="M123.666 56.9846C123.666 56.5464 123.651 56.1356 123.622 55.7522C123.593 55.3688 123.579 55.0196 123.579 54.7047H125.179C125.179 54.9649 125.186 55.225 125.201 55.4852C125.215 55.7454 125.222 56.0124 125.222 56.2862H125.266C125.381 56.0534 125.54 55.8275 125.741 55.6084C125.958 55.3893 126.21 55.1976 126.498 55.0333C126.786 54.8553 127.111 54.7184 127.471 54.6226C127.832 54.513 128.221 54.4582 128.639 54.4582C128.754 54.4582 128.87 54.4651 128.985 54.4788C129.1 54.4925 129.215 54.5199 129.331 54.5609L129.223 56.1835C128.934 56.1014 128.632 56.0603 128.315 56.0603C127.277 56.0603 126.52 56.3821 126.044 57.0256C125.583 57.6555 125.352 58.525 125.352 59.6341V64.3171H123.666V56.9846Z" fill="#3E3E3E"/>
<path d="M131.895 50.946C131.895 50.6311 132.01 50.3572 132.24 50.1245C132.486 49.8917 132.781 49.7753 133.127 49.7753C133.473 49.7753 133.761 49.8917 133.992 50.1245C134.237 50.3572 134.36 50.6311 134.36 50.946C134.36 51.2884 134.244 51.5691 134.014 51.7881C133.783 52.0072 133.487 52.1168 133.127 52.1168C132.767 52.1168 132.471 52.0072 132.24 51.7881C132.01 51.5691 131.895 51.2884 131.895 50.946ZM132.284 54.7047H133.97V64.3171H132.284V54.7047Z" fill="#048F35"/>
<path d="M139.057 56.0603H136.851V54.7047H139.057V52.5481C139.057 51.9593 139.115 51.4253 139.23 50.946C139.345 50.4531 139.54 50.0286 139.814 49.6726C140.102 49.3166 140.477 49.0427 140.938 48.851C141.399 48.6456 141.969 48.5429 142.646 48.5429C142.863 48.5429 143.093 48.5635 143.338 48.6046C143.583 48.6456 143.785 48.7073 143.944 48.7894L143.706 50.2272C143.302 50.0902 142.92 50.0218 142.56 50.0218C142.127 50.0218 141.789 50.0971 141.544 50.2477C141.298 50.3846 141.111 50.5832 140.981 50.8433C140.866 51.0898 140.794 51.3911 140.765 51.7471C140.751 52.1031 140.743 52.4865 140.743 52.8973V54.7047H143.209V56.0603H140.743V64.3171H139.057V56.0603Z" fill="#048F35"/>
<path d="M153.467 58.6482C153.438 57.8267 153.157 57.1694 152.624 56.6765C152.091 56.1835 151.355 55.9371 150.418 55.9371C149.481 55.9371 148.725 56.1835 148.148 56.6765C147.571 57.1694 147.225 57.8267 147.11 58.6482H153.467ZM154.916 62.5712C154.311 63.3106 153.647 63.831 152.927 64.1322C152.206 64.4198 151.37 64.5635 150.418 64.5635C149.625 64.5635 148.912 64.4335 148.278 64.1733C147.643 63.8994 147.103 63.5366 146.656 63.0847C146.223 62.6328 145.885 62.0988 145.64 61.4826C145.409 60.8665 145.294 60.2092 145.294 59.5109C145.294 58.7715 145.423 58.0937 145.683 57.4775C145.942 56.8476 146.303 56.3136 146.764 55.8754C147.225 55.4236 147.773 55.0744 148.407 54.8279C149.042 54.5815 149.734 54.4582 150.483 54.4582C151.19 54.4582 151.838 54.5746 152.429 54.8074C153.02 55.0265 153.525 55.3551 153.943 55.7933C154.375 56.2178 154.707 56.7449 154.938 57.3748C155.168 57.991 155.284 58.6962 155.284 59.4903V60.0038H147.11C147.139 60.4146 147.24 60.8117 147.413 61.1951C147.6 61.5648 147.838 61.8934 148.126 62.181C148.415 62.4548 148.753 62.6739 149.143 62.8382C149.532 63.0026 149.957 63.0847 150.418 63.0847C151.154 63.0847 151.773 62.9615 152.278 62.715C152.782 62.4685 153.237 62.1057 153.64 61.6264L154.916 62.5712Z" fill="#3E3E3E"/>
<path d="M158.758 56.9846C158.758 56.5464 158.743 56.1356 158.714 55.7522C158.686 55.3688 158.671 55.0196 158.671 54.7047H160.271C160.271 54.9649 160.278 55.225 160.293 55.4852C160.307 55.7454 160.314 56.0124 160.314 56.2862H160.358C160.473 56.0534 160.632 55.8275 160.833 55.6084C161.05 55.3893 161.302 55.1976 161.59 55.0333C161.879 54.8553 162.203 54.7184 162.563 54.6226C162.924 54.513 163.313 54.4582 163.731 54.4582C163.846 54.4582 163.962 54.4651 164.077 54.4788C164.192 54.4925 164.308 54.5199 164.423 54.5609L164.315 56.1835C164.026 56.1014 163.724 56.0603 163.407 56.0603C162.369 56.0603 161.612 56.3821 161.136 57.0256C160.675 57.6555 160.444 58.525 160.444 59.6341V64.3171H158.758V56.9846Z" fill="#3E3E3E"/>
<path d="M166.987 50.946C166.987 50.6311 167.102 50.3572 167.333 50.1245C167.578 49.8917 167.873 49.7753 168.219 49.7753C168.565 49.7753 168.853 49.8917 169.084 50.1245C169.329 50.3572 169.452 50.6311 169.452 50.946C169.452 51.2884 169.336 51.5691 169.106 51.7881C168.875 52.0072 168.58 52.1168 168.219 52.1168C167.859 52.1168 167.563 52.0072 167.333 51.7881C167.102 51.5691 166.987 51.2884 166.987 50.946ZM167.376 54.7047H169.062V64.3171H167.376V54.7047Z" fill="#3E3E3E"/>
<path d="M178.041 59.6957C176.96 59.6957 176.102 59.8395 175.468 60.1271C174.834 60.4146 174.517 60.887 174.517 61.5443C174.517 62.1467 174.726 62.5781 175.144 62.8382C175.576 63.0847 176.109 63.2079 176.744 63.2079C177.234 63.2079 177.659 63.1326 178.019 62.982C178.394 62.8177 178.704 62.6055 178.949 62.3453C179.194 62.0851 179.382 61.7839 179.511 61.4416C179.641 61.0856 179.713 60.709 179.728 60.3119V59.6957H178.041ZM173.154 55.9371C173.673 55.4304 174.286 55.0607 174.992 54.8279C175.713 54.5815 176.441 54.4582 177.176 54.4582C178.675 54.4582 179.757 54.7937 180.42 55.4647C181.083 56.1356 181.414 57.1557 181.414 58.525V62.6534C181.414 62.9272 181.429 63.2148 181.458 63.516C181.486 63.8036 181.522 64.0706 181.566 64.3171H179.944C179.886 64.098 179.85 63.8583 179.836 63.5982C179.836 63.3243 179.836 63.0847 179.836 62.8793H179.793C179.461 63.3723 179.014 63.7762 178.452 64.0911C177.904 64.4061 177.241 64.5635 176.463 64.5635C175.944 64.5635 175.454 64.5019 174.992 64.3787C174.545 64.2554 174.149 64.0774 173.803 63.8447C173.471 63.5982 173.205 63.2969 173.003 62.9409C172.801 62.5849 172.7 62.1741 172.7 61.7086C172.7 60.9144 172.916 60.2914 173.349 59.8395C173.781 59.3876 174.315 59.0522 174.949 58.8331C175.598 58.614 176.29 58.4771 177.025 58.4223C177.774 58.3675 178.459 58.3402 179.079 58.3402H179.728V58.0526C179.728 57.3543 179.504 56.8271 179.057 56.4711C178.625 56.1151 178.012 55.9371 177.219 55.9371C176.672 55.9371 176.131 56.0261 175.598 56.2041C175.079 56.3684 174.617 56.6285 174.214 56.9846L173.154 55.9371Z" fill="#3E3E3E"/>
<path d="M133.115 49.6521C133.476 49.6521 133.779 49.7753 134.024 50.0218C134.283 50.2545 134.413 50.5421 134.413 50.8844C134.413 51.2267 134.276 51.5211 134.002 51.7676C133.743 52.0004 133.447 52.1168 133.115 52.1168C132.784 52.1168 132.481 52.0004 132.207 51.7676C131.948 51.5211 131.818 51.2267 131.818 50.8844C131.818 50.5421 131.941 50.2545 132.186 50.0218C132.445 49.7753 132.755 49.6521 133.115 49.6521Z" fill="#CD191E"/>
<line y1="44.0821" x2="183" y2="44.0821" stroke="#3E3E3E" stroke-width="0.8"/>
</svg>
