<svg width="55" height="55" viewBox="0 0 55 55" fill="none" xmlns="http://www.w3.org/2000/svg">
<circle cx="27.5" cy="27.5" r="27.5" fill="#CCD2FF"/>
<path d="M15.8333 36.25C15.4201 36.25 15.074 36.11 14.795 35.83C14.516 35.55 14.376 35.2039 14.375 34.7917C14.374 34.3794 14.514 34.0333 14.795 33.7533C15.076 33.4733 15.4221 33.3333 15.8333 33.3333H39.1667C39.5799 33.3333 39.9265 33.4733 40.2065 33.7533C40.4865 34.0333 40.626 34.3794 40.625 34.7917C40.624 35.2039 40.484 35.5505 40.205 35.8315C39.926 36.1124 39.5799 36.2519 39.1667 36.25H15.8333ZM15.8333 28.9583C15.4201 28.9583 15.074 28.8183 14.795 28.5383C14.516 28.2583 14.376 27.9122 14.375 27.5C14.374 27.0878 14.514 26.7417 14.795 26.4617C15.076 26.1817 15.4221 26.0417 15.8333 26.0417H39.1667C39.5799 26.0417 39.9265 26.1817 40.2065 26.4617C40.4865 26.7417 40.626 27.0878 40.625 27.5C40.624 27.9122 40.484 28.2588 40.205 28.5398C39.926 28.8208 39.5799 28.9603 39.1667 28.9583H15.8333ZM15.8333 21.6667C15.4201 21.6667 15.074 21.5267 14.795 21.2467C14.516 20.9667 14.376 20.6206 14.375 20.2083C14.374 19.7961 14.514 19.45 14.795 19.17C15.076 18.89 15.4221 18.75 15.8333 18.75H39.1667C39.5799 18.75 39.9265 18.89 40.2065 19.17C40.4865 19.45 40.626 19.7961 40.625 20.2083C40.624 20.6206 40.484 20.9672 40.205 21.2481C39.926 21.5291 39.5799 21.6686 39.1667 21.6667H15.8333Z" fill="black"/>
</svg>
