<svg width="55" height="55" viewBox="0 0 55 55" fill="none" xmlns="http://www.w3.org/2000/svg">
<circle cx="27.5" cy="27.5" r="27.5" fill="#CCD2FF"/>
<path d="M28.9436 28.9437L28.9436 39.0494C28.9436 39.4275 28.7975 39.7627 28.5054 40.0548C28.2132 40.347 27.878 40.4931 27.4999 40.4931C27.1218 40.4931 26.7867 40.347 26.4945 40.0548C26.2024 39.7627 26.0563 39.4275 26.0563 39.0494L26.0563 28.9437L15.9505 28.9437C15.5724 28.9437 15.2373 28.7976 14.9451 28.5054C14.6529 28.2132 14.5069 27.8781 14.5069 27.5C14.5069 27.1219 14.6529 26.7868 14.9451 26.4946C15.2373 26.2024 15.5724 26.0563 15.9505 26.0563L26.0563 26.0563L26.0563 15.9506C26.0563 15.5725 26.2024 15.2373 26.4945 14.9452C26.7867 14.653 27.1218 14.5069 27.4999 14.5069C27.878 14.5069 28.2132 14.653 28.5054 14.9452C28.7975 15.2373 28.9436 15.5725 28.9436 15.9506L28.9436 26.0563H39.0494C39.4275 26.0563 39.7626 26.2024 40.0548 26.4946C40.3469 26.7868 40.493 27.1219 40.493 27.5C40.493 27.8781 40.3469 28.2132 40.0548 28.5054C39.7626 28.7976 39.4275 28.9437 39.0494 28.9437H28.9436Z" fill="black"/>
</svg>
